<?xml version="1.0" standalone="no"?>
<!DOCTYPE svg PUBLIC "-//W3C//DTD SVG 20010904//EN"
 "http://www.w3.org/TR/2001/REC-SVG-20010904/DTD/svg10.dtd">
<svg version="1.0" xmlns="http://www.w3.org/2000/svg"
 width="512.000000pt" height="512.000000pt" viewBox="0 0 512.000000 512.000000"
 preserveAspectRatio="xMidYMid meet">
<metadata>
Created by potrace 1.14, written by Peter Selinger 2001-2017
</metadata>
<g transform="translate(0.000000,512.000000) scale(0.100000,-0.100000)"
fill="#000000" stroke="none">
<path d="M4655 5103 c-11 -2 -42 -13 -70 -24 -27 -10 -288 -102 -580 -204
-291 -102 -559 -197 -595 -209 -36 -13 -110 -40 -165 -59 -55 -20 -172 -61
-260 -92 -88 -31 -164 -58 -170 -59 -5 -2 -17 -6 -25 -9 -36 -15 -359 -127
-367 -127 -4 0 -20 -6 -34 -14 -22 -11 -74 -28 -89 -28 -3 0 -9 -3 -15 -8 -8
-5 -125 -48 -155 -55 -3 -1 -12 -4 -20 -8 -8 -3 -69 -24 -135 -47 -212 -74
-552 -195 -600 -213 -16 -6 -34 -12 -40 -13 -9 -2 -212 -73 -370 -130 -38 -14
-97 -34 -130 -45 -33 -11 -69 -24 -80 -29 -11 -5 -74 -28 -140 -50 -199 -69
-206 -73 -257 -112 -96 -76 -147 -179 -149 -297 -1 -38 2 -78 6 -90 7 -22 6
-22 90 -5 53 11 55 11 58 14 1 1 18 3 37 5 19 2 35 4 35 5 0 2 24 7 75 14 25
4 56 9 70 12 14 2 39 6 55 8 17 3 44 7 60 10 17 3 55 8 85 11 30 3 66 8 80 10
22 4 78 10 180 19 19 2 82 7 140 11 58 3 128 8 155 10 131 10 535 4 740 -10
55 -4 126 -8 157 -8 32 -1 58 -5 58 -8 0 -3 12 -6 28 -6 36 0 131 -11 161 -17
13 -3 49 -8 80 -11 31 -4 72 -9 91 -11 150 -20 281 -28 470 -28 199 0 234 3
399 40 32 7 126 39 171 57 19 9 38 16 42 16 8 1 101 50 173 91 121 68 314 213
465 348 71 64 298 288 387 383 46 47 42 34 88 294 3 17 19 104 35 195 47 260
48 271 36 339 -10 54 -75 124 -125 134 -36 8 -104 7 -136 0z"/>
<path d="M4540 3681 c-107 -108 -213 -212 -235 -231 -99 -86 -123 -107 -154
-130 -18 -14 -45 -34 -59 -46 -65 -50 -214 -144 -297 -186 -118 -59 -184 -82
-330 -114 -58 -13 -183 -17 -295 -10 -116 8 -154 13 -270 31 -23 4 -190 40
-235 50 -38 9 -60 14 -97 24 -21 5 -38 7 -38 4 0 -3 -6 0 -13 6 -8 6 -16 9
-19 6 -3 -3 -34 1 -69 9 -35 8 -82 17 -104 20 -22 3 -50 8 -62 10 -12 3 -48 7
-80 11 -32 3 -71 8 -88 10 -101 15 -189 21 -415 31 -183 7 -197 7 -360 -1
-147 -8 -171 -9 -275 -20 -38 -3 -92 -8 -120 -10 -27 -3 -63 -7 -79 -10 -15
-3 -49 -8 -75 -11 -86 -10 -106 -12 -106 -14 0 -1 -13 -3 -29 -5 -16 -2 -49
-8 -75 -13 -25 -5 -53 -10 -61 -10 -8 0 -35 -5 -60 -11 -25 -6 -56 -13 -70
-16 -60 -9 -95 -16 -98 -20 -2 -1 30 -95 71 -207 62 -167 78 -203 93 -202 11
1 63 15 116 32 53 18 105 32 116 32 10 0 22 3 26 7 7 7 113 36 216 58 8 2 15
4 15 5 0 1 9 3 20 4 11 2 56 10 100 19 95 20 141 28 175 32 14 2 45 5 70 9
216 27 445 26 630 -4 133 -22 303 -78 425 -140 94 -48 247 -145 253 -162 2 -4
10 -8 17 -8 7 0 15 -4 17 -8 5 -14 260 -207 330 -250 37 -23 74 -42 82 -42 8
0 17 -4 20 -9 11 -17 136 -43 206 -42 44 1 125 8 125 11 0 1 10 3 22 6 38 7
177 57 211 76 17 9 32 14 32 10 0 -4 4 -2 8 3 4 6 36 25 72 44 90 47 244 148
376 246 128 95 105 77 299 239 l151 125 23 128 c13 70 31 171 41 223 10 52 25
133 34 180 8 47 18 99 21 115 3 17 12 66 20 110 8 44 17 91 20 105 11 53 17
100 14 99 -2 -1 -92 -90 -199 -198z"/>
<path d="M1486 2733 c-2 -2 -27 -5 -57 -7 -72 -6 -221 -27 -274 -40 -5 -2 -28
-6 -50 -11 -65 -13 -68 -13 -129 -30 -33 -8 -67 -17 -75 -19 -9 -2 -23 -6 -31
-9 -8 -3 -49 -16 -90 -27 -41 -12 -102 -31 -135 -42 -33 -11 -67 -21 -76 -23
-9 -2 -25 -8 -35 -13 -11 -6 -28 -14 -40 -18 -20 -9 -18 -15 52 -204 40 -107
78 -208 83 -223 l11 -29 32 20 c45 27 261 136 279 140 8 2 21 10 30 18 8 8 21
14 27 14 6 0 36 11 66 25 30 14 62 25 70 25 9 0 16 5 16 12 0 6 3 9 6 6 3 -3
34 5 70 18 35 12 64 21 64 19 0 -2 16 3 35 11 19 8 35 12 35 9 0 -2 10 -1 23
4 60 23 274 34 362 19 91 -16 184 -60 270 -128 87 -69 111 -96 308 -345 104
-130 185 -208 286 -275 55 -36 181 -96 217 -103 11 -2 26 -7 34 -10 40 -15
165 -30 260 -31 97 -1 165 3 294 20 53 6 59 7 126 23 25 5 57 12 72 15 15 2
31 7 36 10 5 3 19 7 33 10 19 3 75 18 154 40 6 2 17 6 25 9 8 3 33 11 55 17
22 6 49 15 60 20 50 21 219 80 232 80 7 0 13 5 13 10 0 6 6 10 14 10 21 0 109
39 117 52 6 10 17 65 24 118 1 8 5 29 8 45 4 17 10 47 13 69 3 21 8 48 10 60
2 11 7 35 9 51 3 17 14 77 25 135 11 58 22 119 25 135 3 17 7 41 9 55 5 28 23
129 31 178 l5 32 -107 -83 c-253 -196 -502 -361 -658 -437 -27 -13 -58 -31
-68 -39 -9 -8 -17 -11 -17 -8 0 4 -16 -2 -35 -13 -20 -11 -41 -20 -48 -20 -7
0 -24 -6 -39 -14 -15 -8 -42 -18 -60 -22 -42 -10 -36 -9 -83 -21 -37 -11 -147
-26 -170 -25 -105 8 -163 20 -235 51 -106 44 -195 111 -400 298 -51 46 -73 65
-110 93 -18 14 -38 30 -44 35 -42 40 -280 173 -319 179 -7 1 -17 4 -22 8 -23
14 -195 53 -285 65 -42 5 -330 10 -334 6z"/>
<path d="M1618 2264 c-3 -2 -37 -6 -76 -9 -39 -2 -76 -6 -81 -9 -5 -3 -24 -8
-42 -10 -35 -5 -166 -44 -184 -54 -5 -4 -14 -7 -20 -8 -31 -5 -326 -149 -445
-217 -55 -32 -75 -48 -74 -63 2 -20 167 -471 177 -480 3 -3 32 10 64 30 32 20
64 36 70 36 6 0 13 4 15 9 4 13 156 82 248 114 210 72 394 51 570 -67 44 -29
190 -145 260 -206 66 -58 84 -72 164 -135 181 -141 395 -261 596 -335 96 -36
359 -105 435 -114 28 -4 57 -9 65 -11 13 -3 77 -11 165 -20 168 -18 611 -23
626 -8 4 4 24 94 43 198 37 198 42 230 51 280 3 17 8 41 10 55 13 64 30 156
39 215 3 17 8 45 11 63 7 44 8 46 6 54 0 3 -25 -3 -53 -14 -29 -10 -58 -20
-65 -22 -7 -1 -16 -5 -19 -9 -4 -4 -17 -7 -29 -7 -11 0 -26 -5 -33 -12 -7 -7
-12 -9 -12 -6 0 4 -16 0 -35 -8 -19 -8 -35 -12 -35 -9 0 3 -8 1 -18 -4 -11 -6
-81 -26 -156 -45 -614 -158 -1039 -124 -1354 106 -32 23 -94 80 -140 127 -96
99 -85 86 -188 216 -215 272 -316 347 -498 370 -21 3 -41 7 -46 10 -4 2 -9 2
-12 -1z"/>
<path d="M1350 1423 c-91 -20 -88 -19 -163 -47 -117 -45 -247 -115 -247 -133
0 -22 72 -145 119 -203 90 -112 190 -194 311 -253 41 -20 581 -206 1200 -412
1217 -406 1177 -395 1286 -359 125 42 207 143 228 284 3 19 8 46 11 60 18 94
23 126 19 130 -3 2 -35 5 -72 6 -101 2 -325 15 -342 19 -8 2 -42 6 -75 10 -82
8 -303 44 -340 55 -16 5 -44 12 -60 14 -17 3 -78 20 -135 37 -275 81 -498 185
-735 343 -84 55 -304 213 -315 226 -15 17 -194 132 -245 158 -147 74 -301 97
-445 65z"/>
</g>
</svg>
