<?xml version="1.0" encoding="UTF-8"?>
<svg id="Ebene_1" data-name="Ebene 1" xmlns="http://www.w3.org/2000/svg" viewBox="0 0 48 48">
  <path d="M48,14.68c.01-1.99-.1-3.6-2.06-3.33-.42-2.6-1.57-3.58-4.71-4.09.1,1.17-.55,2.67.93,3.05,1.26.33,1.44,1.24,1.43,2.68-.06,8.04-.05,16.07-.07,24.11,0,.61-.05,1.22-.08,2.06-.87-.19-1.59-.29-2.29-.5-5.77-1.68-11.29-1.09-16.47,2.88-.34.26-.99.33-1.32.08-5.41-3.91-11.18-4.26-17.13-2.91-.51.12-1.04.13-1.6.19-.07-.49-.16-.79-.16-1.09.03-8.35.08-16.7.07-25.05,0-1.3.58-1.56,1.35-1.77,5.6-1.55,11.11-1.44,16.43,1.55.95.53,1.69.41,2.63-.07,1.85-.94,3.76-1.88,5.71-2.29,1.57-.33,1.88-1.11,1.47-3.08-2.68-.1-5.05,1.07-7.45,2.17-.7.32-1.65.4-2.33.07-5.76-2.75-11.58-3.01-17.48-1-1.15.39-2.5.58-2.67,2.67-.02.2-.35.5-.54.5-1.62-.04-1.6,1.36-1.6,2.82-.01,9.42,0,18.84-.08,28.25-.01,1.74.44,2.29,1.78,2.28,5.54-.07,11.08-.05,16.62,0,.75,0,1.56.22,2.24.61,2.2,1.23,4.35,1.23,6.55.02.69-.38,1.49-.64,2.24-.64,5.54-.05,11.08-.01,16.62-.02,1.81,0,1.9-.13,1.9-2.48,0-9.23-.02-18.46.03-27.69Z" style="fill: #323c5e; stroke-width: 0px;"/>
  <path d="M34.14,18.22h.02c0,4.08-.01,8.16,0,12.24.02,4.9-.38,4.18,3.27,4.23,1.95.03,2-.06,2.02-2.5.05-8.6.1-17.2.14-25.8.03-5.51.16-4.67-3.7-4.81-1.38-.05-1.79.65-1.77,2.33.06,4.77.02,9.54.02,14.31Z" style="fill: #323c5e; stroke-width: 0px;"/>
  <path d="M27.45,15.52c-1.26-.05-1.75.48-1.73,2.15.06,4.14.01,8.28.02,12.42.01,5.34-.31,4.52,3.79,4.62,1,.02,1.43-.48,1.41-1.77-.03-2.63,0-5.27,0-7.91h0c0-1.69,0-3.39,0-5.08-.02-5,.33-4.29-3.49-4.43Z" style="fill: #323c5e; stroke-width: 0px;"/>
  <path d="M18.73,18.77c-1.16-.03-1.58.55-1.56,1.98.04,2.95-.02,5.89.02,8.84.09,6.07-.79,4.99,4.2,5.11,1.06.03,1.51-.62,1.49-1.95-.02-1.94,0-3.89,0-5.83,0-1,0-2.01,0-3.01-.02-5.85.44-5.04-4.16-5.14Z" style="fill: #323c5e; stroke-width: 0px;"/>
  <path d="M12.9,34.69c.1,0,.2-.02.29-.02.92.03.98-.85,1.03-1.35.14-1.35.05-2.75.05-4.46-.12-6.55.91-5.31-4.09-5.48-1.06-.04-1.37.6-1.33,1.83.05,1.5,0,3.01.02,4.51.08,5.81-.7,4.88,4.03,4.96Z" style="fill: #323c5e; stroke-width: 0px;"/>
</svg>