<?xml version="1.0" encoding="UTF-8"?>
<svg id="Ebene_1" data-name="Ebene 1" xmlns="http://www.w3.org/2000/svg" viewBox="0 0 800 800">
  <path d="M584.97,106.31c-53.64-33.85-113.16-51.35-176.59-54.66-4.06-.21-10.7-.04-10.7-.04-.94,2.42-2.05,5.37-3.24,8.55-2.95,6.12-4.82,13.07-7.64,20.61,17.84,1.51,33.65,1.99,49.18,4.3,172.55,25.66,294.86,165.28,297.34,339.02,2.93,205.81-179.21,367.87-382.62,339.81C147.38,735.86,3.38,520.28,83.38,302.29c15.38-41.91,41.25-77.54,65.03-114.48,30.27-47.02,71.32-81.63,122.42-104.32,4.16-1.85,8.5-3.34,12.8-4.84,3.82-1.33,7.71-2.45,11.57-3.66-45.62,31.43-94.6,57.58-124.68,106.88,40.34,16.86,96.09,5.74,139.22-27.4,48.76-37.46,70.52-88.91,78.19-151.81-40.78,8.4-79.32,14.6-116.89,24.47-60.68,15.93-102.94,52.11-117.66,115.77-1.19,5.15-5.65,10-9.6,13.99C45.53,256.4,8.81,375.66,40.95,511c35.65,150.13,132.84,246.55,283.34,279.51,218.58,47.86,433.27-123.41,439.69-347.09,4.17-145.4-55.38-259.08-179-337.11Z" style="fill: #323c5e; stroke-width: 0px;"/>
  <path d="M383.78,435.97c-48.75-18.22-98.06-19.89-148.06-6.63-9.72,2.58-21.16,3.81-22.57,17.68-.13,1.29-2.99,3.32-4.56,3.29-13.71-.27-13.56,9.02-13.57,18.68-.09,62.29-.06,124.59-.67,186.88-.11,11.54,3.75,15.17,15.11,15.06,46.92-.47,93.86-.35,140.78-.02,6.37.04,13.17,1.49,19.01,4.03,18.65,8.12,36.83,8.17,55.51.15,5.88-2.52,12.62-4.21,18.97-4.25,46.93-.33,93.86-.1,140.78-.15,15.3-.02,16.06-.87,16.07-16.41.05-61.05-.18-122.1.25-183.14.09-13.17-.88-23.8-17.4-22-3.53-17.18-13.31-23.71-39.89-27.06.87,7.75-4.69,17.64,7.85,20.18,10.69,2.17,12.23,8.18,12.14,17.72-.52,53.15-.44,106.31-.61,159.47-.01,4.02-.39,8.05-.67,13.61-7.37-1.23-13.45-1.95-19.39-3.3-48.9-11.12-95.64-7.21-139.49,19.04-2.9,1.74-8.4,2.15-11.22.56-45.84-25.88-94.66-28.16-145.05-19.23-4.36.77-8.84.83-13.52,1.25-.62-3.22-1.34-5.22-1.33-7.21.22-55.23.66-110.46.63-165.7,0-8.61,4.95-10.3,11.39-11.69,47.41-10.27,94.07-9.54,139.15,10.28,8.01,3.52,14.33,2.73,22.31-.44,15.7-6.24,31.85-12.44,48.38-15.13,13.32-2.17,15.91-7.37,12.43-20.35-22.71-.67-42.74,7.08-63.05,14.38-5.94,2.13-13.93,2.62-19.72.45Z" style="fill: #323c5e; stroke-width: 0px;"/>
  <path d="M483.33,399.87c.48,31.55.17,63.1.17,94.66h.16c0,26.99-.1,53.97.03,80.96.16,32.43-3.19,27.65,27.69,27.96,16.52.17,16.97-.4,17.09-16.53.42-56.88.82-113.75,1.19-170.63.24-36.42,1.33-30.88-31.32-31.8-11.66-.33-15.18,4.27-15.01,15.38Z" style="fill: #323c5e; stroke-width: 0px;"/>
  <path d="M456.41,539.61c0-11.2.05-22.41,0-33.61-.17-33.09,2.79-28.36-29.59-29.31-10.69-.31-14.86,3.19-14.64,14.19.54,27.38.11,54.77.18,82.16.09,35.32-2.65,29.86,32.09,30.53,8.51.16,12.07-3.19,11.95-11.68-.25-17.43-.07-34.86-.07-52.29h.08Z" style="fill: #323c5e; stroke-width: 0px;"/>
  <path d="M353.01,498.15c-9.79-.18-13.35,3.61-13.17,13.12.36,19.48-.17,38.98.21,58.46.79,40.12-6.69,33.03,35.56,33.81,8.98.17,12.76-4.12,12.62-12.91-.2-12.85-.05-25.71-.02-38.56,0-6.63.02-13.27,0-19.9-.15-38.67,3.72-33.31-35.19-34.02Z" style="fill: #323c5e; stroke-width: 0px;"/>
  <path d="M303.61,603.46c.83.01,1.81-.07,2.44-.1,8.52-.36,8.52-4.4,8.72-8.91.4-9.03.42-18.19.42-29.51-1.01-43.32,7.69-35.15-34.65-36.24-8.97-.23-11.57,3.94-11.25,12.12.39,9.94-.02,19.91.17,29.86.71,38.4-5.9,32.25,34.16,32.79Z" style="fill: #323c5e; stroke-width: 0px;"/>
  <polygon points="165.3 242.52 165.3 350.07 226.51 350.07 226.51 335.67 181.87 335.67 181.87 242.52 165.3 242.52" style="fill: #323c5e; stroke-width: 0px;"/>
  <path d="M299.27,313.04c.17-1.44.4-3.41.4-5.9,0-4.13-.64-14.7-6.57-23.69-5.69-8.63-14.67-13.19-25.97-13.19-21.62,0-36.73,17.27-36.73,42s15.09,39.36,38.43,39.36c12.39,0,20.75-2.6,25.59-4.79l1.16-.52-3.04-12.78-1.68.71c-4.59,1.95-10.22,3.75-20.17,3.75-6.98,0-23.02-2.27-24.13-22.96h52.48l.23-2ZM246.9,302.19c1.4-7.8,6.67-19.08,19.14-19.08,4.97,0,8.97,1.51,11.9,4.5,4.43,4.51,5.31,11.17,5.45,14.58h-36.49Z" style="fill: #323c5e; stroke-width: 0px;"/>
  <path d="M398.41,255.83c11.22,0,17.9,2.33,22.47,4.36l1.61.71,4.12-13.95-1.18-.57c-4.96-2.4-14.59-4.96-26.71-4.96-34.6,0-57.95,22.29-58.12,55.48,0,16.2,5.48,30.79,15.05,40.02,10.03,9.57,23.15,14.22,40.12,14.22,13.53,0,25.2-3.17,32.61-5.83l1.02-.37v-52.85h-37.49v13.93h21.23v28.61c-2.19.88-7.08,2.25-16.44,2.25-23.91,0-38.76-15.56-38.76-40.62s15.5-40.46,40.46-40.46Z" style="fill: #323c5e; stroke-width: 0px;"/>
  <path d="M449,310.65c-4.77,4.74-7.19,10.81-7.19,18.04,0,6.06,2.2,11.71,6.2,15.9,4.47,4.7,10.8,7.18,18.28,7.18,8.76,0,16.85-3.46,22.23-9.37l.88,7.67h15.62l-.33-1.82c-.82-4.5-1.21-10.29-1.21-17.7v-28.05c0-26.64-16.35-32.23-30.06-32.23-9.44,0-18.72,2.52-25.48,6.91l-1.01.66,4.13,11.99,1.65-1.07c5.16-3.34,12.15-5.33,18.69-5.33,10.29,0,15.51,5.32,15.51,15.82h0c-17.67.13-30.43,3.96-37.92,11.41ZM487.22,311.77v11.5c0,1.14-.25,2.51-.69,3.84-1.81,5.31-7.27,11.51-16.68,11.51-8.35,0-11.32-5.93-11.32-11.48,0-3.71,1.16-6.66,3.56-9,4.32-4.23,12.54-6.37,24.45-6.37.22,0,.45,0,.68,0Z" style="fill: #323c5e; stroke-width: 0px;"/>
  <path d="M558.82,284.35c7.57,0,12.36,1.83,15.04,3.36l1.69.97,4.01-13.65-1.15-.58c-3.73-1.86-11.09-4.04-19.6-4.04-12.31,0-22.83,4.05-30.43,11.71-7.36,7.42-11.41,17.96-11.41,29.66,0,23.82,15.63,39.83,38.9,39.83,10.04,0,18.27-2.43,22.26-4.52l1.05-.55-3-13.21-1.71.75c-3.95,1.74-8.77,3.59-16.12,3.59-14.65,0-24.5-10.65-24.5-26.51s9.8-26.82,24.96-26.82Z" style="fill: #323c5e; stroke-width: 0px;"/>
  <path d="M601.38,363.47c-4.69,3.97-9.54,5.78-11.41,6.37l-1.44.46,4.24,14.25,1.36-.25c2.09-.38,9.53-2.17,17.47-9.19,9.03-7.82,15.63-19.83,26.16-47.58l21.26-55.57h-17.76l-15.23,45.06c-1.23,3.6-2.35,7.38-3.33,10.72-.05.17-.1.34-.15.51-1.05-3.48-2.3-7.37-3.54-10.95l-16.8-45.34h-18.23l28.58,71.2c.39,1.07.84,2.38.84,3.04,0,.49-.55,1.72-.95,2.63-2.53,5.69-6.65,11.15-11.06,14.64Z" style="fill: #323c5e; stroke-width: 0px;"/>
</svg>