<?xml version="1.0" encoding="UTF-8"?>
<svg id="Layer_1" xmlns="http://www.w3.org/2000/svg" xmlns:xlink="http://www.w3.org/1999/xlink" version="1.1" viewBox="0 0 17 16">
  <!-- Generator: Adobe Illustrator 29.6.1, SVG Export Plug-In . SVG Version: 2.1.1 Build 9)  -->
  <defs>
    <style>
      .st0 {
        mask: url(#mask);
      }

      .st1 {
        fill: #fff;
      }

      .st1, .st2, .st3, .st4 {
        fill-rule: evenodd;
      }

      .st2 {
        fill: #62bdee;
      }

      .st3 {
        fill: #3f89b0;
      }

      .st4 {
        fill: #365662;
      }
    </style>
    <mask id="mask" x="3" y="2" width="6" height="3.43" maskUnits="userSpaceOnUse">
      <g id="mask-3">
        <polygon id="path-2" class="st1" points="3 2 9 2 9 5.43 3 5.43 3 2"/>
      </g>
    </mask>
  </defs>
  <g id="Design-">
    <g id="Spielerboard---Ich-bin-dran-">
      <g id="Stone_x2F_filled-Copy-5">
        <path id="Fill-1" class="st3" d="M0,5v6.32h0c.04,2.59,3.83,4.68,8.5,4.68s8.46-2.09,8.5-4.68h0v-6.32H0Z"/>
        <path id="Fill-3" class="st2" d="M17,5c0,2.76-3.81,5-8.5,5S0,7.76,0,5,3.81,0,8.5,0s8.5,2.24,8.5,5"/>
        <g id="Group-3">
          <g class="st0">
            <path id="Fill-11" data-name="Fill-1" class="st4" d="M8.99,5.06s0-.02,0-.03c0,0,0-.01,0-.02,0,0,0-.02,0-.02,0,0,0-.02,0-.03,0,0,0,0,0-.01,0-.01,0-.02,0-.04,0,0,0,0,0,0,0-.02,0-.05-.01-.07l-.74-2.51c-.07-.24-.32-.38-.56-.31-.24.07-.37.33-.3.57l.48,1.63-4.25-1.6c-.23-.09-.49.03-.58.27-.09.24.03.5.27.59l5.1,1.92c.05.02.11.03.16.03.18,0,.36-.11.42-.3,0-.02.01-.04.02-.07,0,0,0,0,0,0"/>
          </g>
        </g>
      </g>
    </g>
  </g>
</svg>