<?xml version="1.0" encoding="UTF-8"?>
<svg id="Layer_1" xmlns="http://www.w3.org/2000/svg" xmlns:xlink="http://www.w3.org/1999/xlink"
     viewBox="0 0 17 16">
    <g>
        <path class="zeitstein-cylinder" d="M0,5v6.32h0c.04,2.59,3.83,4.68,8.5,4.68s8.46-2.09,8.5-4.68h0v-6.32H0Z"/>
        <path class="zeitstein-top" d="M17,5c0,2.76-3.81,5-8.5,5S0,7.76,0,5,3.81,0,8.5,0s8.5,2.24,8.5,5"/>
        <path class="zeitstein-clock"
              d="M8.99,5.06s0-.02,0-.03c0,0,0-.01,0-.02,0,0,0-.02,0-.02,0,0,0-.02,0-.03,0,0,0,0,0-.01,0-.01,0-.02,0-.04,0,0,0,0,0,0,0-.02,0-.05-.01-.07l-.74-2.51c-.07-.24-.32-.38-.56-.31-.24.07-.37.33-.3.57l.48,1.63-4.25-1.6c-.23-.09-.49.03-.58.27-.09.24.03.5.27.59l5.1,1.92c.05.02.11.03.16.03.18,0,.36-.11.42-.3,0-.02.01-.04.02-.07,0,0,0,0,0,0"/>
    </g>
</svg>
