<?xml version="1.0" encoding="UTF-8"?>
<svg id="Layer_1" xmlns="http://www.w3.org/2000/svg" xmlns:xlink="http://www.w3.org/1999/xlink" version="1.1" viewBox="0 0 17 16">
  <!-- Generator: Adobe Illustrator 29.6.1, SVG Export Plug-In . SVG Version: 2.1.1 Build 9)  -->
  <defs>
    <style>
      .st0 {
        mask: url(#mask);
      }

      .st1 {
        fill: #fff;
      }

      .st1, .st2 {
        fill-rule: evenodd;
      }

      .st2 {
        fill: #bdc3ce;
      }
    </style>
    <mask id="mask" x="0" y="0" width="17" height="16" maskUnits="userSpaceOnUse">
      <g id="mask-3">
        <polygon id="path-2" class="st1" points="0 0 17 0 17 16 0 16 0 0"/>
      </g>
    </mask>
  </defs>
  <g id="Design-">
    <g id="Spielerboard---Ich-bin-dran-">
      <g id="Stone_x2F_filled">
        <g class="st0">
          <path id="Fill-1" class="st2" d="M15.94,11.18v.05c-.01.87-.73,1.76-1.97,2.46-1.45.81-3.39,1.25-5.46,1.25s-4.02-.45-5.46-1.25c-1.24-.69-1.96-1.59-1.97-2.46v-.05s0-4.07,0-4.07c1.45,1.47,4.24,2.47,7.44,2.47s5.99-1,7.44-2.47v4.07ZM3.01,2.32c1.45-.82,3.4-1.27,5.49-1.27s4.04.45,5.49,1.27c1.24.7,1.95,1.6,1.95,2.47s-.71,1.77-1.95,2.47c-1.45.82-3.4,1.27-5.49,1.27s-4.04-.45-5.49-1.27c-1.24-.7-1.95-1.6-1.95-2.47s.71-1.77,1.95-2.47h0ZM17,4.79C17,2.15,13.19,0,8.5,0S0,2.15,0,4.79c0,.01,0,.03,0,.04h0v6.42h0c.04,2.63,3.83,4.75,8.5,4.75s8.46-2.12,8.5-4.75h0v-6.42h0s0-.03,0-.04h0Z"/>
        </g>
      </g>
    </g>
  </g>
</svg>