<svg xmlns="http://www.w3.org/2000/svg" width="1654" height="951" viewBox="0 0 1654 951">
<defs>
  <linearGradient id="topGrad" x1="0" y1="0" x2="1" y2="1">
    <stop offset="0%" stop-color="#f3fbfe"/>
    <stop offset="100%" stop-color="#e8f4f8"/>
  </linearGradient>
  <linearGradient id="blueCard" x1="0" y1="0" x2="1" y2="1">
    <stop offset="0%" stop-color="#eff8ff"/>
    <stop offset="100%" stop-color="#e2f0fa"/>
  </linearGradient>
  <linearGradient id="yellowCard" x1="0" y1="0" x2="1" y2="1">
    <stop offset="0%" stop-color="#fff9df"/>
    <stop offset="100%" stop-color="#fff1bd"/>
  </linearGradient>
  <linearGradient id="redCard" x1="0" y1="0" x2="1" y2="1">
    <stop offset="0%" stop-color="#fff8f8"/>
    <stop offset="100%" stop-color="#fff0f2"/>
  </linearGradient>
  <linearGradient id="darkBlue" x1="0" y1="0" x2="0" y2="1">
    <stop offset="0%" stop-color="#223a78"/>
    <stop offset="100%" stop-color="#172f69"/>
  </linearGradient>
  <filter id="softShadow" x="-5%" y="-8%" width="110%" height="120%">
    <feDropShadow dx="0" dy="2" stdDeviation="2" flood-color="#092052" flood-opacity="0.12"/>
  </filter>
  <marker id="arrow" viewBox="0 0 10 10" refX="9" refY="5" markerWidth="9" markerHeight="9" orient="auto-start-reverse">
    <path d="M 0 0 L 10 5 L 0 10 z" fill="#112653"/>
  </marker>
  <marker id="smallArrow" viewBox="0 0 10 10" refX="9" refY="5" markerWidth="11" markerHeight="11" orient="auto">
    <path d="M 0 0 L 10 5 L 0 10 z" fill="#0b3d83"/>
  </marker>
  <style><![CDATA[
    .bold { font-weight: 700; }
    .smallbold { font-weight: 700; }
  ]]></style>
</defs>
<rect x="15" y="16" width="1624" height="156" rx="18" fill="url(#topGrad)" stroke="none" stroke-width="1"/>
<circle cx="74" cy="104" r="22" fill="none" stroke="#132552" stroke-width="5"/>
<text x="74" y="110" font-family="Arial, Helvetica, sans-serif" font-size="18" font-weight="500" fill="#132552" text-anchor="middle">1</text>
<circle cx="117" cy="104" r="22" fill="none" stroke="#132552" stroke-width="5"/>
<text x="117" y="110" font-family="Arial, Helvetica, sans-serif" font-size="18" font-weight="500" fill="#132552" text-anchor="middle">2</text>
<circle cx="160" cy="104" r="22" fill="none" stroke="#f26445" stroke-width="5"/>
<line x1="96" y1="104" x2="96" y2="104" stroke="#132552" stroke-width="4" stroke-linecap="round"/>
<line x1="139" y1="104" x2="139" y2="104" stroke="#132552" stroke-width="4" stroke-linecap="round"/>
<line x1="154" y1="84" x2="154" y2="121" stroke="#132552" stroke-width="4" stroke-linecap="round"/>
<path d="M158 84 L174 92 L158 100 Z" fill="none" stroke="#f26445" stroke-width="4" stroke-linejoin="round"/>
<text x="222" y="111" font-family="Arial, Helvetica, sans-serif" font-size="30" font-weight="700" fill="#0b1733" text-anchor="start">Lebensziel</text>
<text x="222" y="143" font-family="Arial, Helvetica, sans-serif" font-size="24" font-weight="400" fill="#40485b" text-anchor="start">über 3 Lebensphasen erreichen</text>
<text x="827" y="54" font-family="Arial, Helvetica, sans-serif" font-size="32" font-weight="700" fill="#0b1733" text-anchor="middle">Ziel des Spiels</text>
<line x1="545" y1="104" x2="770" y2="104" stroke="#132552" stroke-width="4" marker-end="url(#arrow)"/>
<rect x="812" y="70" width="674" height="88" rx="12" fill="url(#darkBlue)" stroke="#0f2250" stroke-width="2"/>
<text x="1149" y="124" font-family="Arial, Helvetica, sans-serif" font-size="30" font-weight="400" fill="#ffffff" text-anchor="middle">Als erste Person erfolgreich abschließen</text>
<text x="70" y="223" font-family="Arial, Helvetica, sans-serif" font-size="30" font-weight="700" fill="#0b1733" text-anchor="start">Was du managen musst:</text>
<rect x="67" y="242" width="487" height="129" rx="14" fill="url(#blueCard)" stroke="#79a5c8" stroke-width="1.6"/>
<circle cx="117" cy="307" r="29" fill="none" stroke="#3b78a8" stroke-width="5"/>
<line x1="117" y1="307" x2="117" y2="283" stroke="#1d2b55" stroke-width="4" stroke-linecap="round"/>
<line x1="117" y1="307" x2="135" y2="320" stroke="#1d2b55" stroke-width="4" stroke-linecap="round"/>
<text x="168" y="294" font-family="Arial, Helvetica, sans-serif" font-size="26" font-weight="700" fill="#0b1733" text-anchor="start">Zeitsteine</text>
<text x="168" y="322" font-family="Arial, Helvetica, sans-serif" font-size="18" font-weight="400" fill="#0b1733" text-anchor="start">Pro Zug eine Aktion wählen;</text>
<text x="168" y="345" font-family="Arial, Helvetica, sans-serif" font-size="18" font-weight="400" fill="#0b1733" text-anchor="start">Anzahl je nach Konjunkturphase.</text>
<rect x="578" y="242" width="487" height="129" rx="14" fill="url(#yellowCard)" stroke="#e2b12d" stroke-width="1.6"/>
<circle cx="627" cy="307" r="29" fill="#fff6d2" stroke="#e2ad22" stroke-width="5"/>
<text x="627" y="317" font-family="Arial, Helvetica, sans-serif" font-size="31" font-weight="700" fill="#6e4b00" text-anchor="middle">€</text>
<text x="676" y="294" font-family="Arial, Helvetica, sans-serif" font-size="26" font-weight="700" fill="#0b1733" text-anchor="start">Kapital</text>
<text x="676" y="322" font-family="Arial, Helvetica, sans-serif" font-size="18" font-weight="400" fill="#0b1733" text-anchor="start">Lebenshaltungskosten, Abgaben, Kredite</text>
<text x="676" y="345" font-family="Arial, Helvetica, sans-serif" font-size="18" font-weight="400" fill="#0b1733" text-anchor="start">und liquides Kapital planen.</text>
<rect x="1088" y="242" width="515" height="129" rx="14" fill="url(#redCard)" stroke="#f2a8a8" stroke-width="1.6"/>
<rect x="1119" y="314" width="10" height="21" rx="0" fill="#677097" stroke="#677097" stroke-width="1"/>
<rect x="1138" y="302" width="10" height="33" rx="0" fill="#677097" stroke="#677097" stroke-width="1"/>
<rect x="1157" y="291" width="10" height="44" rx="0" fill="#677097" stroke="#677097" stroke-width="1"/>
<rect x="1176" y="283" width="10" height="52" rx="0" fill="#677097" stroke="#677097" stroke-width="1"/>
<polyline points="1120,303 1134,290 1152,296 1170,278 1184,284 1202,264" fill="none" stroke="#ef6649" stroke-width="5" stroke-linecap="round" stroke-linejoin="round"/>
<circle cx="1120" cy="303" r="4" fill="#ef6649" stroke="#ef6649" stroke-width="1"/>
<circle cx="1134" cy="290" r="4" fill="#ef6649" stroke="#ef6649" stroke-width="1"/>
<circle cx="1152" cy="296" r="4" fill="#ef6649" stroke="#ef6649" stroke-width="1"/>
<circle cx="1170" cy="278" r="4" fill="#ef6649" stroke="#ef6649" stroke-width="1"/>
<circle cx="1184" cy="284" r="4" fill="#ef6649" stroke="#ef6649" stroke-width="1"/>
<circle cx="1202" cy="264" r="4" fill="#ef6649" stroke="#ef6649" stroke-width="1"/>
<text x="1217" y="294" font-family="Arial, Helvetica, sans-serif" font-size="26" font-weight="700" fill="#0b1733" text-anchor="start">Konjunktur</text>
<text x="1217" y="322" font-family="Arial, Helvetica, sans-serif" font-size="18" font-weight="400" fill="#0b1733" text-anchor="start">Wirtschaftsphasen verändern</text>
<text x="1217" y="345" font-family="Arial, Helvetica, sans-serif" font-size="18" font-weight="400" fill="#0b1733" text-anchor="start">Zeitsteine, Risiken und Kurse.</text>
<text x="70" y="421" font-family="Arial, Helvetica, sans-serif" font-size="30" font-weight="700" fill="#0b1733" text-anchor="start">Der Weg zum Ziel</text>
<rect x="68" y="440" width="487" height="371" rx="14" fill="#ffffff" stroke="#f45b40" stroke-width="4"/>
<rect x="95" y="460" width="116" height="36" rx="6" fill="url(#darkBlue)" stroke="#102453" stroke-width="1"/>
<text x="153" y="484" font-family="Arial, Helvetica, sans-serif" font-size="16" font-weight="700" fill="#ffffff" text-anchor="middle">Phase 1</text>
<text x="95" y="528" font-family="Arial, Helvetica, sans-serif" font-size="26" font-weight="700" fill="#0b1733" text-anchor="start">Grundlage schaffen</text>
<text x="95" y="563" font-family="Arial, Helvetica, sans-serif" font-size="18" font-weight="400" fill="#0b1733" text-anchor="start">Baue erste Kompetenzen auf und investiere</text>
<text x="95" y="586" font-family="Arial, Helvetica, sans-serif" font-size="18" font-weight="400" fill="#0b1733" text-anchor="start">genügend Geld für den nächsten Lebensabschnitt.</text>
<text x="95" y="639" font-family="Arial, Helvetica, sans-serif" font-size="18" font-weight="700" fill="#0b1733" text-anchor="start">Voraussetzungen</text>
<line x1="95" y1="651" x2="498" y2="651" stroke="#d6dde7" stroke-width="1.5" stroke-linecap="round"/>
<rect x="95" y="662" width="194" height="78" rx="9" fill="url(#blueCard)" stroke="#c6deee" stroke-width="1"/>
<text x="192" y="692" font-family="Arial, Helvetica, sans-serif" font-size="27" font-weight="700" fill="#0b1733" text-anchor="middle">3</text>
<text x="192" y="721" font-family="Arial, Helvetica, sans-serif" font-size="14" font-weight="700" fill="#0b1733" text-anchor="middle">Kompetenzsteine</text>
<rect x="314" y="662" width="203" height="78" rx="9" fill="url(#yellowCard)" stroke="#f0c961" stroke-width="1"/>
<text x="416" y="692" font-family="Arial, Helvetica, sans-serif" font-size="27" font-weight="700" fill="#0b1733" text-anchor="middle">50.000 €</text>
<text x="416" y="721" font-family="Arial, Helvetica, sans-serif" font-size="14" font-weight="700" fill="#0b1733" text-anchor="middle">liquides Kapital</text>
<rect x="95" y="759" width="430" height="38" rx="6" fill="#f5f8fb" stroke="#ccd7e2" stroke-width="1"/>
<text x="310" y="784" font-family="Arial, Helvetica, sans-serif" font-size="16" font-weight="700" fill="#0b1733" text-anchor="middle">Wechsel in Phase 2</text>
<path d="M560 599 L575 617 L560 635 Z" fill="#0b3d83"/>
<rect x="585" y="440" width="487" height="371" rx="14" fill="#ffffff" stroke="#f45b40" stroke-width="4"/>
<rect x="612" y="460" width="116" height="36" rx="6" fill="url(#darkBlue)" stroke="#102453" stroke-width="1"/>
<text x="670" y="484" font-family="Arial, Helvetica, sans-serif" font-size="16" font-weight="700" fill="#ffffff" text-anchor="middle">Phase 2</text>
<text x="612" y="528" font-family="Arial, Helvetica, sans-serif" font-size="26" font-weight="700" fill="#0b1733" text-anchor="start">Lebensziel ausbauen</text>
<text x="612" y="563" font-family="Arial, Helvetica, sans-serif" font-size="18" font-weight="400" fill="#0b1733" text-anchor="start">In der 2. Phase steigen Möglichkeiten,</text>
<text x="612" y="586" font-family="Arial, Helvetica, sans-serif" font-size="18" font-weight="400" fill="#0b1733" text-anchor="start">Anforderungen und Risiken für das Erreichen</text>
<text x="612" y="609" font-family="Arial, Helvetica, sans-serif" font-size="18" font-weight="400" fill="#0b1733" text-anchor="start">deines Lebensziels.</text>
<text x="612" y="639" font-family="Arial, Helvetica, sans-serif" font-size="18" font-weight="700" fill="#0b1733" text-anchor="start">Voraussetzungen</text>
<line x1="612" y1="651" x2="1015" y2="651" stroke="#d6dde7" stroke-width="1.5" stroke-linecap="round"/>
<rect x="612" y="662" width="194" height="78" rx="9" fill="url(#blueCard)" stroke="#c6deee" stroke-width="1"/>
<text x="709" y="692" font-family="Arial, Helvetica, sans-serif" font-size="27" font-weight="700" fill="#0b1733" text-anchor="middle">6</text>
<text x="709" y="721" font-family="Arial, Helvetica, sans-serif" font-size="14" font-weight="700" fill="#0b1733" text-anchor="middle">Kompetenzsteine</text>
<rect x="831" y="662" width="203" height="78" rx="9" fill="url(#yellowCard)" stroke="#f0c961" stroke-width="1"/>
<text x="933" y="692" font-family="Arial, Helvetica, sans-serif" font-size="27" font-weight="700" fill="#0b1733" text-anchor="middle">200.000 €</text>
<text x="933" y="721" font-family="Arial, Helvetica, sans-serif" font-size="14" font-weight="700" fill="#0b1733" text-anchor="middle">liquides Kapital</text>
<rect x="612" y="759" width="430" height="38" rx="6" fill="#f5f8fb" stroke="#ccd7e2" stroke-width="1"/>
<text x="827" y="784" font-family="Arial, Helvetica, sans-serif" font-size="16" font-weight="700" fill="#0b1733" text-anchor="middle">Wechsel in Phase 3</text>
<path d="M1077 599 L1092 617 L1077 635 Z" fill="#0b3d83"/>
<rect x="1100" y="440" width="487" height="371" rx="14" fill="#ffffff" stroke="#f45b40" stroke-width="4"/>
<rect x="1127" y="460" width="116" height="36" rx="6" fill="url(#darkBlue)" stroke="#102453" stroke-width="1"/>
<text x="1185" y="484" font-family="Arial, Helvetica, sans-serif" font-size="16" font-weight="700" fill="#ffffff" text-anchor="middle">Phase 3</text>
<text x="1127" y="528" font-family="Arial, Helvetica, sans-serif" font-size="26" font-weight="700" fill="#0b1733" text-anchor="start">Lebensziel abschließen</text>
<text x="1127" y="563" font-family="Arial, Helvetica, sans-serif" font-size="18" font-weight="400" fill="#0b1733" text-anchor="start">Sichere die letzten Kompetenzsteine und</text>
<text x="1127" y="586" font-family="Arial, Helvetica, sans-serif" font-size="18" font-weight="400" fill="#0b1733" text-anchor="start">genügend liquides Kapital, um dein Lebensziel</text>
<text x="1127" y="609" font-family="Arial, Helvetica, sans-serif" font-size="18" font-weight="400" fill="#0b1733" text-anchor="start">erfolgreich abzuschließen.</text>
<text x="1127" y="639" font-family="Arial, Helvetica, sans-serif" font-size="18" font-weight="700" fill="#0b1733" text-anchor="start">Voraussetzungen</text>
<line x1="1127" y1="651" x2="1530" y2="651" stroke="#d6dde7" stroke-width="1.5" stroke-linecap="round"/>
<rect x="1127" y="662" width="194" height="78" rx="9" fill="url(#blueCard)" stroke="#c6deee" stroke-width="1"/>
<text x="1224" y="692" font-family="Arial, Helvetica, sans-serif" font-size="27" font-weight="700" fill="#0b1733" text-anchor="middle">9</text>
<text x="1224" y="721" font-family="Arial, Helvetica, sans-serif" font-size="14" font-weight="700" fill="#0b1733" text-anchor="middle">Kompetenzsteine</text>
<rect x="1346" y="662" width="203" height="78" rx="9" fill="url(#yellowCard)" stroke="#f0c961" stroke-width="1"/>
<text x="1448" y="692" font-family="Arial, Helvetica, sans-serif" font-size="27" font-weight="700" fill="#0b1733" text-anchor="middle">500.000 €</text>
<text x="1448" y="721" font-family="Arial, Helvetica, sans-serif" font-size="14" font-weight="700" fill="#0b1733" text-anchor="middle">liquides Kapital</text>
<rect x="1127" y="759" width="430" height="38" rx="6" fill="#f5f8fb" stroke="#ccd7e2" stroke-width="1"/>
<text x="1342" y="784" font-family="Arial, Helvetica, sans-serif" font-size="16" font-weight="700" fill="#0b1733" text-anchor="middle">Lebensziel erreicht</text>
<rect x="45" y="831" width="1580" height="83" rx="13" fill="url(#darkBlue)" stroke="none" stroke-width="1"/>
<text x="84" y="882" font-family="Arial, Helvetica, sans-serif" font-size="21" font-weight="700" fill="#ffffff" text-anchor="start">Gewinnbedingungen</text>
<line x1="348" y1="852" x2="348" y2="895" stroke="#ffffff" stroke-width="2" stroke-linecap="round"/>
<line x1="348" y1="852" x2="348" y2="895" stroke="#ffffff" stroke-width="2" opacity="0.28"/>
<line x1="707" y1="852" x2="707" y2="895" stroke="#ffffff" stroke-width="2" stroke-linecap="round"/>
<line x1="707" y1="852" x2="707" y2="895" stroke="#ffffff" stroke-width="2" opacity="0.28"/>
<line x1="1161" y1="852" x2="1161" y2="895" stroke="#ffffff" stroke-width="2" stroke-linecap="round"/>
<line x1="1161" y1="852" x2="1161" y2="895" stroke="#ffffff" stroke-width="2" opacity="0.28"/>
<circle cx="434" cy="872" r="16" fill="#ffffff" stroke="none" stroke-width="1"/>
<path d="M427 871 L432 879 L442 863" fill="none" stroke="#1f3a78" stroke-width="5" stroke-linecap="round" stroke-linejoin="round"/>
<text x="466" y="880" font-family="Arial, Helvetica, sans-serif" font-size="20" font-weight="700" fill="#ffffff" text-anchor="start">Phase 3 erfüllt</text>
<circle cx="784" cy="872" r="16" fill="#ffffff" stroke="none" stroke-width="1"/>
<path d="M777 871 L782 879 L792 863" fill="none" stroke="#1f3a78" stroke-width="5" stroke-linecap="round" stroke-linejoin="round"/>
<text x="820" y="880" font-family="Arial, Helvetica, sans-serif" font-size="20" font-weight="700" fill="#ffffff" text-anchor="start">500.000 € liquides Kapital</text>
<circle cx="1248" cy="872" r="16" fill="#ffffff" stroke="none" stroke-width="1"/>
<path d="M1241 871 L1246 879 L1256 863" fill="none" stroke="#1f3a78" stroke-width="5" stroke-linecap="round" stroke-linejoin="round"/>
<text x="1284" y="880" font-family="Arial, Helvetica, sans-serif" font-size="20" font-weight="700" fill="#ffffff" text-anchor="start">Keine offenen Kredite</text>
</svg>