<!-- Generated by IcoMoon.io -->
<svg version="1.1" xmlns="http://www.w3.org/2000/svg" width="21" height="28" viewBox="0 0 21 28">
<title>arrow-down-to-line</title>
<path fill="#fff" d="M1.75 26.25c-0.968 0-1.75-0.782-1.75-1.75s0.782-1.75 1.75-1.75h17.5c0.968 0 1.75 0.782 1.75 1.75s-0.782 1.75-1.75 1.75h-17.5zM11.736 18.736c-0.684 0.684-1.794 0.684-2.477 0l-7-7c-0.684-0.684-0.684-1.794 0-2.477s1.794-0.684 2.477 0l4.014 4.014v-9.773c0-0.968 0.782-1.75 1.75-1.75s1.75 0.782 1.75 1.75v9.773l4.014-4.014c0.684-0.684 1.794-0.684 2.477 0s0.684 1.794 0 2.477l-7 7z"></path>
</svg>
