<!-- Generated by IcoMoon.io -->
<svg version="1.1" xmlns="http://www.w3.org/2000/svg" width="28" height="28" viewBox="0 0 28 28">
<title>mastodon</title>
<path fill="#fff" d="M26.25 9.493c0-5.695-3.733-7.364-3.733-7.364-1.883-0.864-5.115-1.227-8.473-1.255h-0.083c-3.358 0.027-6.588 0.391-8.47 1.255 0 0-3.734 1.669-3.734 7.364 0 1.304-0.025 2.863 0.016 4.517 0.136 5.568 1.022 11.057 6.174 12.42 2.375 0.628 4.415 0.76 6.057 0.669 2.979-0.164 4.648-1.062 4.648-1.062l-0.098-2.16s-2.129 0.671-4.519 0.589c-2.369-0.081-4.867-0.255-5.25-3.161-0.035-0.241-0.055-0.52-0.055-0.804 0-0.004 0-0.008 0-0.012v0.001c1.545 0.362 3.352 0.613 5.203 0.7l0.068 0.003c1.802 0.083 3.491-0.106 5.207-0.31 3.291-0.393 6.157-2.419 6.517-4.271 0.57-2.917 0.524-7.119 0.524-7.119zM21.845 16.83h-2.734v-6.692c0-1.411-0.594-2.127-1.782-2.127-1.313 0-1.972 0.849-1.972 2.529v3.664h-2.716v-3.664c0-1.679-0.656-2.529-1.972-2.529-1.188 0-1.782 0.716-1.782 2.127v6.692h-2.734v-6.895q0-2.114 1.080-3.357c0.744-0.829 1.717-1.253 2.926-1.253 1.399 0 2.458 0.537 3.158 1.612l0.682 1.14 0.681-1.14c0.701-1.075 1.759-1.612 3.158-1.612 1.209 0 2.183 0.425 2.926 1.253q1.082 1.242 1.080 3.357z"></path>
</svg>
